<?xml version="1.0" standalone="no"?>
<!DOCTYPE svg PUBLIC "-//W3C//DTD SVG 20010904//EN"
 "http://www.w3.org/TR/2001/REC-SVG-20010904/DTD/svg10.dtd">
<svg version="1.0" xmlns="http://www.w3.org/2000/svg"
 width="199.000000pt" height="186.000000pt" viewBox="0 0 199.000000 186.000000"
 preserveAspectRatio="xMidYMid meet">

<g transform="translate(0.000000,186.000000) scale(0.100000,-0.100000)"
fill="#000000" stroke="none">
<path d="M817 1840 c-187 -32 -384 -130 -521 -259 -201 -191 -298 -430 -283
-699 8 -141 12 -156 46 -148 14 4 71 9 126 12 202 12 376 -56 519 -202 95 -95
147 -225 162 -402 9 -108 26 -132 94 -132 37 0 56 6 77 24 l28 24 -1 124 c-2
116 -18 224 -56 355 -9 33 -9 45 1 57 18 21 44 20 65 -3 27 -30 65 -201 76
-349 13 -156 22 -190 57 -198 35 -9 101 13 129 43 22 24 24 34 24 137 0 109
-14 227 -46 378 -14 63 -14 80 -4 93 17 21 57 19 70 -4 11 -22 44 -218 61
-371 6 -58 18 -116 26 -129 13 -20 20 -23 57 -18 81 11 110 74 122 265 14 218
-39 484 -132 664 l-15 29 -67 -62 c-152 -140 -260 -202 -351 -202 -59 0 -121
24 -153 60 -111 123 -16 447 184 627 35 31 116 92 181 136 64 43 114 81 110
83 -23 13 -149 49 -217 62 -83 16 -286 18 -369 5z"/>
<path d="M1385 1636 c-244 -164 -354 -298 -401 -485 -50 -199 72 -249 261
-109 39 29 118 101 178 160 l107 107 19 -38 c51 -100 144 -333 164 -410 19
-76 22 -113 22 -308 0 -253 -4 -246 81 -126 56 77 109 191 136 291 29 108 29
315 0 423 -43 159 -125 300 -243 418 -68 68 -180 151 -203 151 -6 0 -60 -34
-121 -74z"/>
<path d="M132 640 c-29 -4 -56 -11 -59 -14 -4 -3 12 -43 35 -88 84 -169 237
-322 412 -412 82 -42 248 -101 257 -92 10 9 -20 194 -43 267 -24 77 -82 177
-125 215 -46 41 -124 85 -188 105 -74 22 -211 32 -289 19z"/>
</g>
</svg>
